<?xml version="1.0" encoding="iso-8859-1"?>
<!DOCTYPE svg PUBLIC "-//W3C//DTD SVG 1.1//EN" "http://www.w3.org/Graphics/SVG/1.1/DTD/svg11.dtd">
<svg version="1.1" id="Capa_1" xmlns="http://www.w3.org/2000/svg" xmlns:xlink="http://www.w3.org/1999/xlink" x="0px" y="0px"
	 width="612px" height="612px" viewBox="0 0 612 612" style="enable-background:new 0 0 612 612;" xml:space="preserve" fill="#CCC">
<g>
	<g id="_x38__2_">
		<g>
			<path d="M441.156,172.68c-28.075-56.935-86.521-96.18-154.281-96.18c-90.825,0-165.049,70.399-171.494,159.598
				C48.616,255.127,0,313.459,0,382.5c0,81.453,67.703,147.855,153,152.541l325.125,0.459C543.839,506.966,612,427.463,612,353.812
				C612,257.136,536.418,178.321,441.156,172.68z M434.481,336.829c-7.516,7.479-19.698,7.479-27.215,0l-82.142-81.778v184.537
				c0,10.576-8.568,19.145-19.125,19.145c-10.557,0-19.125-8.568-19.125-19.145V255.644l-81.549,81.185
				c-7.516,7.479-19.699,7.479-27.215,0c-7.516-7.478-7.516-19.622,0-27.1l113.603-113.086c4.016-3.997,9.313-5.699,14.573-5.431
				c5.24-0.268,10.557,1.434,14.573,5.431l113.603,113.086C441.979,317.207,441.979,329.332,434.481,336.829z"/>
		</g>
	</g>
</g>
<g>
</g>
<g>
</g>
<g>
</g>
<g>
</g>
<g>
</g>
<g>
</g>
<g>
</g>
<g>
</g>
<g>
</g>
<g>
</g>
<g>
</g>
<g>
</g>
<g>
</g>
<g>
</g>
<g>
</g>
</svg>
